# xmcd
# Track frame offsets:
# 182
# 14047
# 48277
# 66855
# 88020
# 111615
# 125945
# 144347
# 165015
#
# Disc length: 2411 seconds
# Revision: 0
# Processed by: cddbd v1.4PL0 Copyright (c) Steve Scherf et al.
# Submitted via: VisiTrax 2.9.5.181 - For more info visit www.synapsa.com
#
DISCID=7d096909
DTITLE=Albert Collins - Don't Lose Your Cool
DYEAR=1983
DGENRE=
TTITLE0=Get To Gettin'
TTITLE1=My Mind Is Trying To Leave Me
TTITLE2=Broke
TTITLE3=Don't Lose Your Cool
TTITLE4=When A Guitar Plays The Blues
TTITLE5=But I was Cool!
TTITLE6=Melt Down
TTITLE7=Ego Trip
TTITLE8=Quicksand
EXTD=
EXTT0=
EXTT1=
EXTT2=
EXTT3=
EXTT4=
EXTT5=
EXTT6=
EXTT7=
EXTT8=
PLAYORDER=
